# MoonBoardFootJib_Y0 - decimated from laser scan, units metres
# 400 verts, 703 normals, 800 tris
o MoonBoardFootJib_Y0
v -0.028591 0.001565 -0.011610
v -0.027809 0.000616 -0.004470
v -0.027873 -0.000218 -0.010068
v -0.026707 0.000100 0.002151
v -0.026936 0.000522 -0.016349
v -0.027616 0.000426 -0.013993
v -0.023885 0.005329 -0.017238
v -0.026645 -0.000091 -0.004628
v -0.027034 0.003572 -0.011926
v -0.026107 0.001923 -0.018294
v -0.025791 0.000477 0.007618
v -0.026390 0.006214 -0.006565
v -0.027177 0.000607 0.001531
v -0.024506 -0.000033 0.009594
v -0.025495 0.005922 -0.001526
v -0.019939 0.000099 -0.002583
v -0.024658 0.001668 -0.021426
v -0.024198 0.002537 0.011845
v -0.023474 0.007448 0.006688
v -0.025145 0.000785 -0.019090
v -0.024535 0.000841 0.015450
v -0.023365 0.007218 0.008855
v -0.023356 0.000526 -0.015030
v -0.024987 0.007951 -0.007995
v -0.023619 0.012189 -0.002267
v -0.022530 0.000083 -0.022076
v -0.023459 0.000363 -0.007604
v -0.018920 0.000062 0.008961
v -0.023351 0.002718 -0.022158
v -0.023128 0.000611 0.019701
v -0.023742 0.009116 0.002607
v -0.021869 0.010862 0.009126
v -0.025761 0.000131 0.005385
v -0.019113 0.001293 -0.023627
v -0.022476 0.015232 -0.001155
v -0.022270 0.001237 0.023215
v -0.023055 0.000130 0.020774
v -0.022230 0.013403 -0.004578
v -0.022572 0.010966 -0.008738
v -0.020345 0.015395 0.011463
v -0.021137 0.004771 -0.020935
v -0.017513 0.000584 -0.009072
v -0.021096 0.010084 0.015827
v -0.018195 0.001744 0.026439
v -0.021183 0.016379 0.005398
v -0.023286 0.000064 0.015933
v -0.021038 0.006813 0.022750
v -0.021071 0.017388 0.001012
v -0.019268 0.017066 -0.003797
v -0.024286 0.000053 0.013535
v -0.019616 0.009417 0.024899
v -0.018783 0.014606 0.024701
v -0.019445 0.016962 0.009914
v -0.019058 -0.000038 0.002066
v -0.022399 0.000419 -0.019609
v -0.019833 -0.000357 0.011892
v -0.019842 0.012656 -0.010934
v -0.019143 0.015643 -0.008063
v -0.021546 0.007848 -0.016186
v -0.019412 0.015306 0.018570
v -0.014225 0.002456 -0.024966
v -0.018645 0.016280 0.016893
v -0.018494 0.000300 -0.022850
v -0.019960 0.000010 0.022431
v -0.016053 0.002742 0.028509
v -0.014373 0.006448 0.028774
v -0.018276 0.016929 0.013150
v -0.015377 0.015345 0.026667
v -0.019532 0.017805 -0.000354
v -0.015404 0.011999 0.027665
v -0.017242 0.016186 0.022141
v -0.015315 0.004002 -0.022877
v -0.017352 0.011390 -0.013970
v -0.018752 0.017342 0.007043
v -0.020678 -0.000303 0.017803
v -0.015888 -0.000404 -0.023164
v -0.015749 0.008705 -0.017034
v -0.017487 -0.000004 0.017171
v -0.015598 0.000395 -0.014834
v -0.016634 0.000027 0.026754
v -0.017539 0.017928 -0.005803
v -0.015093 0.015015 -0.010105
v -0.015803 0.000428 -0.020035
v -0.014194 0.010589 -0.014632
v -0.016966 0.000222 0.011117
v -0.013428 0.016932 0.009491
v -0.014146 -0.000305 0.019615
v -0.012306 0.017229 -0.007601
v -0.011160 0.015261 0.027820
v -0.011965 0.013465 0.029508
v -0.014612 0.000907 0.028220
v -0.012296 0.008994 0.029055
v -0.013038 0.016611 0.013852
v -0.011722 0.000386 -0.021092
v -0.009578 0.002654 -0.024220
v -0.012307 0.015579 0.011611
v -0.013801 -0.000068 -0.007028
v -0.013096 0.000020 -0.001994
v -0.013422 0.000235 0.015125
v -0.012279 0.000214 0.008370
v -0.013621 0.000196 0.001550
v -0.012625 0.000012 0.021862
v -0.011559 -0.000281 -0.016944
v -0.011882 0.015830 0.020813
v -0.013751 0.006782 -0.019613
v -0.009249 0.000016 -0.000969
v -0.011779 0.009340 -0.017460
v -0.010215 0.017181 -0.000466
v -0.011394 0.014651 -0.010910
v -0.009830 0.017555 -0.006938
v -0.010973 -0.000150 -0.012439
v -0.012925 0.000282 -0.024348
v -0.010246 -0.000026 0.010610
v -0.009323 0.016971 0.006151
v -0.010730 -0.000166 0.004075
v -0.010325 -0.000143 0.026997
v -0.008506 0.001676 -0.026019
v -0.010254 0.016373 0.011298
v -0.008749 0.000368 -0.025374
v -0.008030 0.000078 0.022861
v -0.009605 0.014161 0.012689
v -0.009645 0.016729 0.013164
v -0.008919 0.000023 -0.017062
v -0.009795 0.013487 0.009032
v -0.007299 0.006108 0.027808
v -0.010263 0.012104 -0.014218
v -0.008823 0.016398 0.017172
v -0.007353 0.015339 0.023428
v -0.008576 -0.000412 0.009279
v -0.005130 0.011501 -0.014613
v -0.008708 0.007063 -0.019960
v -0.006990 0.011324 0.015202
v -0.008037 0.004540 -0.023073
v -0.008223 0.013794 0.004922
v -0.007336 -0.000065 -0.012024
v -0.006956 0.009383 0.014830
v -0.007591 -0.000134 -0.019314
v -0.007618 0.008772 0.007948
v -0.008351 0.010839 0.008871
v -0.005715 0.000267 0.000444
v -0.006997 0.016930 0.002988
v -0.005382 -0.000520 -0.025901
v -0.008034 0.009275 0.010924
v -0.008031 0.016072 0.016864
v -0.005350 -0.000171 0.016017
v -0.008959 0.015593 -0.010713
v -0.007022 0.000094 0.009156
v -0.006940 -0.000020 0.012579
v -0.007723 0.013938 0.016690
v -0.005434 0.001300 0.014337
v -0.009589 0.000242 -0.006326
v -0.005489 0.006358 0.011689
v -0.005354 0.008502 0.004265
v -0.003928 0.008213 0.017514
v -0.006770 0.000470 -0.021844
v -0.006713 -0.000255 0.026388
v -0.005962 0.014549 0.028587
v -0.005177 0.011507 0.003768
v -0.005185 0.006392 0.008402
v -0.003700 0.016991 -0.003181
v -0.003194 0.016084 0.000958
v -0.003892 0.015260 0.027032
v -0.000133 0.000193 -0.027877
v -0.003883 0.000261 -0.017882
v -0.003107 0.014360 0.027961
v -0.002304 0.000605 0.016385
v -0.003381 0.016027 0.020506
v -0.002976 -0.000408 0.021052
v -0.002917 -0.000113 0.025408
v -0.003516 0.016957 0.000152
v -0.005365 -0.000113 0.005471
v -0.003628 0.001257 0.026816
v -0.001355 0.008224 0.002502
v -0.002220 0.006385 -0.021530
v -0.002660 -0.000173 -0.013761
v -0.001126 0.011179 0.002230
v -0.003317 0.006744 0.014501
v -0.002896 -0.000539 -0.022620
v -0.004050 0.017372 -0.008919
v -0.002077 0.010580 0.028306
v -0.002683 0.013296 0.020005
v -0.004626 0.013296 0.001802
v -0.003257 0.006547 0.005711
v -0.002997 0.003650 0.004823
v -0.000142 0.003201 0.015889
v -0.003033 0.000150 0.003844
v -0.002154 0.015797 -0.002220
v -0.003264 0.000184 -0.009639
v -0.002011 0.010183 -0.017033
v 0.001405 0.014462 0.027280
v -0.000278 0.015979 0.021017
v -0.001099 0.000144 -0.003297
v -0.001204 0.000007 -0.019917
v -0.002613 0.004392 -0.024309
v 0.001461 0.006937 0.015812
v -0.002485 0.015213 -0.012158
v -0.000879 0.000047 0.022315
v -0.000471 -0.000793 -0.026607
v -0.001769 0.010930 0.018805
v 0.000428 0.004857 0.004482
v -0.000169 0.000146 0.003200
v -0.000060 0.000317 -0.013977
v 0.000968 0.014661 0.020781
v -0.000747 0.006939 0.015863
v 0.003560 0.006569 0.026717
v -0.002265 0.011984 -0.014010
v 0.000705 0.006693 0.004450
v 0.000008 -0.000791 0.026348
v -0.000128 0.015612 0.023588
v 0.001296 0.013896 0.022602
v 0.000867 0.013624 0.000493
v -0.000930 0.017077 -0.005590
v 0.001966 0.003899 0.004688
v 0.001963 0.017386 -0.008932
v 0.000592 0.009938 -0.017499
v 0.002542 0.014796 -0.013766
v 0.004546 0.013170 0.001564
v 0.001805 0.000580 0.004051
v 0.002228 0.000088 -0.009809
v 0.000220 0.001911 -0.027754
v 0.002181 0.000976 0.015531
v 0.002228 0.016407 0.000532
v -0.000041 0.016697 0.000361
v 0.005280 0.001932 -0.028365
v 0.003139 -0.000608 -0.019941
v 0.002663 0.011103 0.002423
v 0.002918 -0.000740 -0.027666
v 0.002685 -0.000157 0.002674
v 0.001749 0.004826 -0.024237
v 0.001694 0.000051 0.016923
v 0.005968 -0.001239 -0.024625
v 0.003992 -0.000226 0.025720
v 0.000653 0.007621 0.018536
v 0.003770 0.001458 0.026479
v 0.003374 0.015380 0.024762
v 0.004397 0.006643 0.013794
v 0.007055 0.011346 0.027176
v 0.004701 0.002084 0.012933
v 0.003001 0.010817 0.018588
v 0.003658 0.016991 -0.006661
v 0.002923 0.012799 0.019872
v 0.004712 -0.000036 0.006868
v 0.004305 0.008444 0.017530
v 0.003174 0.008189 -0.020847
v 0.001985 0.016641 -0.011371
v 0.006997 0.016161 0.002704
v 0.002627 0.000259 -0.017278
v 0.005309 0.001198 0.010572
v 0.004408 -0.000094 -0.001326
v 0.004503 -0.000337 -0.009178
v 0.004520 0.006001 0.006217
v 0.004744 0.004445 0.008312
v 0.003198 0.009307 0.003074
v 0.005525 0.014563 0.026929
v 0.003736 0.014262 -0.014691
v 0.005422 -0.000552 -0.022552
v 0.008034 0.001913 0.025690
v 0.003237 0.015611 0.020675
v 0.004811 0.009847 -0.019033
v 0.005683 0.006602 0.011838
v 0.006054 0.000033 -0.011023
v 0.006747 -0.000560 0.025292
v 0.006804 0.007922 0.007191
v 0.005510 0.000133 0.013735
v 0.008434 -0.000676 -0.028328
v 0.006842 -0.000771 -0.019614
v 0.006835 0.007805 0.014460
v 0.007216 0.011045 0.005710
v 0.006688 -0.000048 0.009890
v 0.006859 -0.000250 -0.015313
v 0.008281 0.008329 -0.020750
v 0.007601 0.013374 0.003650
v 0.008065 -0.000566 -0.001125
v 0.008556 0.015483 0.017267
v 0.007485 0.012824 0.017167
v 0.008891 0.017100 -0.008911
v 0.007904 0.007578 0.010958
v 0.008555 0.010667 0.009722
v 0.008934 -0.000094 -0.005263
v 0.006081 0.016807 -0.011459
v 0.011412 0.006448 0.025708
v 0.007587 0.010974 0.014943
v 0.009250 -0.000001 0.003233
v 0.009295 0.016314 0.005007
v 0.007636 0.012687 -0.016163
v 0.009483 0.013169 0.006762
v 0.006051 0.000109 0.022842
v 0.008049 0.015073 0.025710
v 0.010229 0.001329 -0.028927
v 0.005183 0.016662 0.000262
v 0.010177 0.012980 0.011703
v 0.011852 -0.000767 -0.023229
v 0.012140 0.016492 -0.003212
v 0.012639 0.000070 -0.003694
v 0.010343 0.015524 0.009483
v 0.008977 0.000328 0.024765
v 0.009844 0.015605 0.015225
v 0.009126 -0.000359 -0.018522
v 0.009026 0.005369 -0.024093
v 0.010717 0.011102 0.026859
v 0.012964 0.000341 0.023986
v 0.009549 -0.000221 -0.010925
v 0.009955 0.013412 -0.014645
v 0.011891 0.015033 0.025349
v 0.010499 0.000023 0.009172
v 0.012205 -0.001025 -0.028554
v 0.012167 0.014586 0.008955
v 0.013020 -0.000756 -0.025937
v 0.012805 0.015684 0.011444
v 0.006620 0.004195 -0.025692
v 0.012663 -0.000049 -0.016241
v 0.014391 0.001438 0.024611
v 0.012368 0.016081 0.006405
v 0.015276 -0.000420 0.005887
v 0.013457 -0.000289 0.003154
v 0.011904 0.015737 -0.011573
v 0.017838 0.015025 0.021749
v 0.014446 0.000081 -0.021903
v 0.016587 0.016518 -0.004592
v 0.015406 0.013893 0.024652
v 0.013441 -0.000208 0.014126
v 0.012192 0.000259 0.021150
v 0.015353 0.000048 -0.029235
v 0.014272 -0.000055 -0.009701
v 0.014984 0.010029 0.025920
v 0.014055 0.007280 -0.022606
v 0.015434 0.000105 0.001626
v 0.015646 -0.000012 -0.024809
v 0.014952 0.015700 0.009009
v 0.016484 0.006685 0.025205
v 0.012695 0.011865 -0.016817
v 0.015099 -0.000212 -0.017384
v 0.017620 -0.000073 0.006524
v 0.018632 -0.000771 -0.027496
v 0.020165 0.009774 0.021684
v 0.017870 -0.000077 0.023239
v 0.016355 0.000107 0.012709
v 0.016760 0.001244 -0.029508
v 0.017808 -0.000392 -0.025453
v 0.019415 0.015308 0.016191
v 0.020498 0.003894 0.022990
v 0.016026 0.016697 -0.008191
v 0.017505 0.016207 0.000997
v 0.019641 0.000158 -0.022461
v 0.018195 0.015876 0.007546
v 0.018588 0.007597 -0.019765
v 0.018277 0.000140 -0.006042
v 0.018595 0.014122 -0.009448
v 0.019605 -0.000797 0.023031
v 0.020130 0.000178 0.023573
v 0.019198 0.011730 -0.013199
v 0.015946 0.003708 -0.026877
v 0.018726 0.015137 -0.002194
v 0.018009 -0.000039 -0.013078
v 0.021170 0.000237 0.011277
v 0.019819 0.000242 0.017473
v 0.017580 0.000056 -0.000864
v 0.020048 0.000279 0.005260
v 0.022085 -0.000134 -0.003963
v 0.022067 0.000736 -0.026259
v 0.020367 0.014530 0.009108
v 0.021231 0.014511 0.018983
v 0.019958 0.003872 -0.024015
v 0.022165 0.000270 0.021355
v 0.020204 0.013219 0.001494
v 0.022725 0.010909 0.014683
v 0.022374 0.000123 -0.012108
v 0.024338 0.007412 0.003839
v 0.022536 0.001712 0.022650
v 0.022480 0.012605 0.017040
v 0.022122 -0.000000 -0.025963
v 0.025502 -0.000604 -0.007327
v 0.021619 0.010316 -0.002125
v 0.022189 0.007057 -0.017608
v 0.024721 -0.000377 -0.023253
v 0.023168 0.009585 0.007577
v 0.025831 0.000093 -0.015830
v 0.024341 0.000049 -0.000114
v 0.025068 0.000429 0.012063
v 0.024385 0.002275 0.020616
v 0.024794 0.008494 0.017594
v 0.025096 -0.000076 -0.020337
v 0.023407 0.004965 -0.019803
v 0.025055 0.001363 -0.024349
v 0.024752 0.000148 0.005588
v 0.023328 0.006085 -0.011421
v 0.025998 0.001029 -0.016468
v 0.027975 0.000415 0.014209
v 0.022928 0.007780 -0.005573
v 0.027721 0.000095 0.002937
v 0.026471 0.000183 -0.012549
v 0.027758 0.000066 0.010428
v 0.027426 -0.000004 -0.004130
v 0.028016 0.001429 0.017021
v 0.025447 0.006770 0.011900
v 0.027335 0.000933 -0.007172
v 0.028147 0.000958 0.000383
v 0.028591 0.000960 0.008792
v 0.028181 0.001612 0.005407
v 0.028406 0.002347 0.014919
vn -0.999540 0.028730 -0.009370
vn -0.995010 -0.041160 0.090870
vn -0.992860 -0.113890 0.035520
vn -0.992540 0.080340 0.091740
vn -0.966420 -0.093940 0.239160
vn -0.965850 0.236050 -0.106850
vn -0.956380 -0.095740 -0.276000
vn -0.955960 0.217430 0.197140
vn -0.954580 0.241120 0.175020
vn -0.954200 -0.103000 0.280890
vn -0.953830 0.206970 0.217630
vn -0.952200 0.257270 0.164680
vn -0.951120 -0.041710 0.305980
vn -0.948790 0.058230 0.310480
vn -0.948050 0.276380 0.157530
vn -0.947650 0.277780 0.157490
vn -0.946880 -0.311230 0.080920
vn -0.946200 0.266510 0.183530
vn -0.943530 -0.236100 0.232400
vn -0.941780 0.319600 -0.104400
vn -0.940870 0.294610 0.167240
vn -0.940350 0.340170 -0.005800
vn -0.939310 0.313020 0.140410
vn -0.938350 0.316120 0.139880
vn -0.938080 0.276630 0.208540
vn -0.937670 0.304410 0.167650
vn -0.936440 0.277790 0.214260
vn -0.933970 0.325290 0.147970
vn -0.932560 0.309520 0.185820
vn -0.929400 0.345300 0.130300
vn -0.929010 0.365550 0.057480
vn -0.926520 0.337730 0.165800
vn -0.925860 -0.154960 -0.344640
vn -0.925720 0.364700 -0.100160
vn -0.924470 0.334870 0.182230
vn -0.924370 0.342870 0.167300
vn -0.922740 -0.382630 0.046290
vn -0.920550 0.356980 0.158590
vn -0.917030 0.256570 -0.305340
vn -0.912660 0.408000 0.024260
vn -0.909040 0.388970 -0.149490
vn -0.901460 -0.393280 -0.180850
vn -0.898550 0.438230 -0.023690
vn -0.893320 0.448830 0.023290
vn -0.887630 0.456690 0.059600
vn -0.874350 0.335850 0.350300
vn -0.870740 0.372900 -0.320540
vn -0.869760 0.390570 0.301600
vn -0.864310 0.319230 0.388670
vn -0.858580 -0.512670 -0.002220
vn -0.855840 0.317180 -0.408570
vn -0.854960 0.431050 -0.288500
vn -0.853290 0.236720 0.464620
vn -0.852360 0.363130 0.376310
vn -0.848150 0.268950 -0.456410
vn -0.846970 -0.010870 -0.531540
vn -0.838270 -0.270530 0.473400
vn -0.837720 0.533590 0.116200
vn -0.834630 -0.204930 -0.511270
vn -0.832000 0.475410 -0.285960
vn -0.831400 -0.551530 0.067670
vn -0.820450 0.139940 0.554340
vn -0.812260 -0.372890 -0.448540
vn -0.810570 0.189340 -0.554190
vn -0.806080 0.373500 -0.459060
vn -0.803610 -0.386450 0.452630
vn -0.803260 0.080160 0.590220
vn -0.784120 0.579960 -0.220900
vn -0.779570 -0.139880 0.610490
vn -0.779260 0.565210 -0.270740
vn -0.776500 0.568090 -0.272610
vn -0.769810 0.602570 0.210490
vn -0.757740 0.470970 0.451690
vn -0.754270 0.463670 0.464850
vn -0.748570 0.244300 0.616420
vn -0.745240 0.583910 -0.321970
vn -0.743820 0.612250 -0.268110
vn -0.739010 -0.520690 -0.427480
vn -0.738110 -0.599990 0.308560
vn -0.732990 -0.676590 0.070370
vn -0.723950 -0.677250 0.131280
vn -0.709730 0.590080 -0.384830
vn -0.709260 0.619360 -0.336650
vn -0.707870 0.200180 0.677380
vn -0.693720 0.573660 0.435510
vn -0.686840 0.577180 0.441710
vn -0.686460 0.719800 0.103210
vn -0.684940 0.671720 -0.282220
vn -0.678290 -0.589590 -0.438520
vn -0.657300 0.088350 0.748430
vn -0.642340 -0.763470 0.067200
vn -0.640270 0.422690 -0.641400
vn -0.636050 -0.108610 0.763960
vn -0.632470 0.774190 -0.024760
vn -0.628630 -0.763160 0.149690
vn -0.626940 -0.281340 0.726490
vn -0.624870 -0.172450 0.761440
vn -0.619440 0.395250 0.678290
vn -0.612610 0.007890 0.790340
vn -0.611730 0.274340 -0.741970
vn -0.605140 -0.516600 0.605750
vn -0.600810 0.659660 -0.451530
vn -0.600710 0.225310 0.767060
vn -0.598880 -0.234430 0.765760
vn -0.595980 0.668560 -0.444790
vn -0.595130 0.566720 -0.569780
vn -0.588800 0.798710 0.123980
vn -0.582800 0.167710 -0.795120
vn -0.569880 -0.821730 -0.002490
vn -0.563760 0.131400 0.815420
vn -0.560760 0.153200 0.813690
vn -0.556060 0.334870 -0.760700
vn -0.553640 0.093470 0.827490
vn -0.553210 0.832950 -0.012050
vn -0.551870 -0.359710 -0.752360
vn -0.546630 0.696670 -0.464590
vn -0.544300 0.819160 0.180900
vn -0.541610 0.247910 0.803240
vn -0.537140 0.827470 0.163650
vn -0.529880 0.732630 -0.427170
vn -0.518860 0.095710 0.849480
vn -0.507030 0.859070 -0.070140
vn -0.505760 0.470790 -0.722880
vn -0.502250 0.727600 -0.467280
vn -0.478440 0.424760 0.768550
vn -0.455350 -0.849650 0.265980
vn -0.453890 0.269900 -0.849200
vn -0.451600 -0.091570 -0.887510
vn -0.447220 0.414820 0.792410
vn -0.432190 -0.744750 0.508480
vn -0.431090 -0.156990 -0.888550
vn -0.422000 0.796090 -0.433780
vn -0.421080 -0.484710 -0.766650
vn -0.419130 0.261000 0.869600
vn -0.403810 -0.912620 0.063690
vn -0.397090 0.291980 0.870100
vn -0.394890 -0.675080 0.623160
vn -0.393480 0.541870 -0.742670
vn -0.383960 -0.702430 -0.599300
vn -0.382450 0.605350 -0.698050
vn -0.381390 0.682270 0.623750
vn -0.378430 0.787850 -0.485880
vn -0.378400 0.843390 -0.381450
vn -0.373220 -0.001290 -0.927740
vn -0.359550 0.013310 0.933030
vn -0.351120 0.343740 -0.870960
vn -0.334710 0.845690 0.415670
vn -0.331120 -0.555670 0.762620
vn -0.325540 -0.008430 0.945490
vn -0.312820 -0.937310 -0.153620
vn -0.296140 -0.396810 -0.868820
vn -0.285100 -0.924160 0.254250
vn -0.282180 0.174640 0.943330
vn -0.277970 0.954800 -0.105310
vn -0.275250 0.820920 0.500330
vn -0.270230 0.410870 -0.870720
vn -0.262150 -0.293180 -0.919410
vn -0.255730 0.428890 0.866400
vn -0.238930 -0.242960 -0.940150
vn -0.236860 0.341300 -0.909620
vn -0.232380 0.762420 -0.603920
vn -0.231060 -0.522200 -0.820920
vn -0.230920 0.282780 0.930970
vn -0.227410 -0.244470 -0.942610
vn -0.221270 -0.390670 -0.893540
vn -0.215320 -0.934900 -0.282130
vn -0.208550 -0.605610 -0.767950
vn -0.207840 0.411650 0.887320
vn -0.206670 0.771680 0.601490
vn -0.204050 0.434650 -0.877180
vn -0.202670 0.918620 0.339210
vn -0.202180 0.737990 -0.643810
vn -0.201010 0.978200 -0.052120
vn -0.194430 0.332990 -0.922670
vn -0.191560 -0.981350 -0.015730
vn -0.190160 0.917890 -0.348290
vn -0.187520 -0.428810 -0.883720
vn -0.187450 0.977820 0.093440
vn -0.185640 0.907330 0.377200
vn -0.183990 -0.976030 -0.116280
vn -0.183150 -0.944800 0.271670
vn -0.172230 -0.982320 -0.073350
vn -0.170080 -0.985430 -0.000690
vn -0.168240 0.737930 -0.653570
vn -0.164280 0.690660 -0.704270
vn -0.163970 -0.258070 -0.952110
vn -0.163740 -0.193530 -0.967330
vn -0.161430 0.707000 -0.688550
vn -0.160490 -0.987030 0.003590
vn -0.159290 0.764510 -0.624610
vn -0.158840 -0.144000 -0.976750
vn -0.157300 -0.987070 -0.030990
vn -0.154580 0.682620 -0.714240
vn -0.154540 -0.413590 -0.897250
vn -0.153790 0.855680 -0.494130
vn -0.152070 -0.346180 -0.925760
vn -0.142680 0.792990 -0.592300
vn -0.141510 0.770030 -0.622110
vn -0.140110 -0.988100 0.063440
vn -0.138070 -0.990410 0.004310
vn -0.133970 0.787080 -0.602130
vn -0.131000 0.749260 -0.649190
vn -0.130770 0.680330 -0.721150
vn -0.130040 -0.991490 0.005340
vn -0.128980 0.765730 -0.630100
vn -0.128510 0.641320 -0.756440
vn -0.127490 0.963760 0.234320
vn -0.127150 0.757030 -0.640890
vn -0.122350 -0.113080 0.986020
vn -0.119140 0.748640 -0.652180
vn -0.114750 0.989150 0.091680
vn -0.113420 0.712040 -0.692910
vn -0.109640 -0.993600 0.027320
vn -0.108250 -0.193770 -0.975060
vn -0.105820 0.776200 -0.621550
vn -0.105250 -0.977300 0.183880
vn -0.105090 0.971960 0.210380
vn -0.101160 -0.992150 0.073540
vn -0.100890 0.934420 -0.341580
vn -0.098790 -0.994350 0.038810
vn -0.096590 0.684880 -0.722230
vn -0.096510 0.207590 -0.973440
vn -0.095660 0.773200 -0.626900
vn -0.094730 -0.072130 -0.992890
vn -0.093870 0.749330 -0.655510
vn -0.093140 -0.989290 0.112340
vn -0.092650 0.761880 -0.641050
vn -0.090060 0.738110 -0.668650
vn -0.089390 0.798630 -0.595150
vn -0.087730 -0.193100 -0.977250
vn -0.083570 0.858500 -0.505950
vn -0.083080 0.781110 -0.618840
vn -0.082790 -0.993370 0.079700
vn -0.082040 -0.996520 0.014630
vn -0.079480 -0.996760 -0.012450
vn -0.079430 0.739560 -0.668380
vn -0.078980 -0.993350 0.083810
vn -0.078930 -0.995880 0.044700
vn -0.078810 -0.994170 0.073640
vn -0.078000 -0.995780 -0.048430
vn -0.077200 0.338910 -0.937650
vn -0.076470 0.230500 0.970060
vn -0.076220 0.497380 -0.864180
vn -0.075380 -0.991520 0.105820
vn -0.075040 -0.991210 0.108990
vn -0.074820 0.919320 -0.386330
vn -0.074710 0.068580 0.994840
vn -0.074480 -0.078310 0.994140
vn -0.073890 0.755960 -0.650430
vn -0.073790 -0.995740 -0.055220
vn -0.068560 -0.997590 0.010520
vn -0.067730 -0.997680 -0.007070
vn -0.067280 0.983380 -0.168610
vn -0.066500 -0.997690 0.013870
vn -0.066380 0.021360 0.997570
vn -0.066190 0.719620 -0.691210
vn -0.065800 0.571930 -0.817660
vn -0.064810 0.211570 -0.975210
vn -0.064720 -0.962220 0.264480
vn -0.064600 -0.997200 0.037740
vn -0.062660 0.994800 0.080300
vn -0.062100 -0.983550 -0.169610
vn -0.061940 0.992570 0.104740
vn -0.061480 0.714830 -0.696590
vn -0.061090 0.775550 -0.628330
vn -0.060690 -0.993120 0.100160
vn -0.060310 -0.910930 -0.408140
vn -0.059910 -0.997820 0.027620
vn -0.059730 0.996010 0.066270
vn -0.058160 -0.997250 -0.045920
vn -0.057650 -0.997420 -0.042720
vn -0.057500 -0.997390 -0.043730
vn -0.056130 0.755220 0.653060
vn -0.055850 -0.998420 0.006300
vn -0.052760 -0.976420 -0.209350
vn -0.051610 -0.998480 -0.019240
vn -0.051330 0.998570 0.015090
vn -0.051070 0.263750 0.963240
vn -0.051040 0.768040 -0.638360
vn -0.050930 -0.998660 0.009180
vn -0.050200 0.994760 0.089070
vn -0.050040 0.758910 -0.649270
vn -0.049390 -0.997710 -0.046110
vn -0.048360 -0.997520 0.051120
vn -0.048270 0.996750 0.064510
vn -0.047860 0.932800 0.357210
vn -0.047760 -0.997330 0.055240
vn -0.046180 -0.998850 -0.012970
vn -0.045980 -0.998750 0.019400
vn -0.045640 0.814910 -0.577790
vn -0.045410 0.948850 0.312450
vn -0.044000 0.991560 0.121960
vn -0.043560 -0.999050 -0.002550
vn -0.043060 -0.998950 -0.015350
vn -0.042970 -0.710190 -0.702700
vn -0.042620 0.985720 0.162900
vn -0.041630 -0.998670 0.030540
vn -0.040770 -0.996690 -0.070330
vn -0.038400 -0.999260 -0.000670
vn -0.037750 -0.998740 0.033060
vn -0.036690 -0.992760 0.114410
vn -0.036400 -0.999090 -0.022250
vn -0.036290 0.989820 0.137610
vn -0.036040 -0.998930 -0.028960
vn -0.035920 -0.999240 0.015260
vn -0.035520 -0.999310 -0.010840
vn -0.035370 0.640880 -0.766830
vn -0.033930 -0.998860 -0.033600
vn -0.033910 -0.999370 -0.010440
vn -0.033410 -0.999350 -0.013180
vn -0.029170 -0.999450 -0.016010
vn -0.028060 0.999610 -0.001140
vn -0.027880 -0.993030 0.114540
vn -0.026760 0.754520 -0.655730
vn -0.026620 -0.988410 -0.149490
vn -0.026390 0.998480 -0.048430
vn -0.026240 -0.997960 0.058150
vn -0.025100 -0.999170 0.032150
vn -0.024240 -0.999330 -0.027520
vn -0.024230 -0.996400 0.081280
vn -0.023690 -0.875440 -0.482750
vn -0.023400 0.735260 -0.677390
vn -0.022850 -0.999610 -0.015800
vn -0.022310 -0.999750 -0.002890
vn -0.021610 -0.964360 0.263730
vn -0.020840 -0.451940 -0.891810
vn -0.020490 -0.999770 -0.006490
vn -0.019660 0.983220 -0.181360
vn -0.018570 -0.998820 0.044770
vn -0.017690 -0.998690 0.048080
vn -0.017190 0.992720 0.119180
vn -0.017040 -0.999690 0.018270
vn -0.016490 -0.999230 0.035710
vn -0.016330 -0.999740 0.015750
vn -0.016270 -0.993150 -0.115670
vn -0.016050 -0.965470 0.260030
vn -0.015310 0.990410 0.137280
vn -0.014980 -0.995960 -0.088580
vn -0.013120 0.836370 -0.548010
vn -0.012930 -0.999660 0.022720
vn -0.012640 -0.998480 -0.053560
vn -0.011590 -0.996190 0.086390
vn -0.011220 -0.999880 0.011020
vn -0.011180 -0.999050 0.042200
vn -0.010590 -0.999080 -0.041610
vn -0.010150 0.177140 -0.984130
vn -0.009760 -0.984490 -0.175160
vn -0.009410 -0.174620 0.984590
vn -0.009000 -0.999460 -0.031580
vn -0.008830 0.999460 0.031600
vn -0.008240 0.998010 0.062520
vn -0.008180 0.986850 -0.161440
vn -0.007360 -0.999960 0.005650
vn -0.007330 -0.999910 -0.011500
vn -0.006600 0.360300 -0.932810
vn -0.006090 -0.999590 -0.027890
vn -0.004940 0.994040 0.108880
vn -0.003820 -0.999970 0.007090
vn -0.002480 -0.993800 0.111130
vn -0.002410 -0.999980 -0.005630
vn -0.002300 -1.000000 0.001340
vn -0.002280 -0.999970 0.007400
vn -0.002110 0.934940 0.354790
vn -0.002100 -0.999880 0.015100
vn -0.001160 -0.813180 0.582010
vn -0.001070 -0.982970 -0.183760
vn -0.000280 0.999980 0.006480
vn 0.000510 -0.999800 0.020200
vn 0.000970 -0.353200 0.935550
vn 0.001100 -0.999960 0.008490
vn 0.001140 -0.996350 -0.085310
vn 0.002030 -0.999780 -0.020840
vn 0.002370 0.986190 0.165590
vn 0.002750 -0.999040 0.043780
vn 0.002900 -0.753470 0.657470
vn 0.004010 -0.990830 0.135050
vn 0.004360 -0.999850 0.016760
vn 0.004820 -0.999720 0.023260
vn 0.007370 -0.996820 -0.079320
vn 0.007900 -0.999940 0.007720
vn 0.008220 0.992720 0.120200
vn 0.009150 -0.999830 -0.015900
vn 0.009500 -0.999440 -0.032080
vn 0.010310 -0.999840 -0.014320
vn 0.010780 -0.999820 -0.015380
vn 0.011030 -0.999810 -0.016120
vn 0.011140 -0.994060 -0.108230
vn 0.013740 -0.607270 0.794380
vn 0.015640 -0.999880 0.002190
vn 0.015820 0.766930 -0.641530
vn 0.016860 -0.999650 -0.020280
vn 0.017810 -0.999730 -0.014840
vn 0.017910 -0.999830 0.004200
vn 0.018250 -0.996550 0.080980
vn 0.018780 -0.998630 0.048750
vn 0.019190 0.861740 0.506980
vn 0.019520 -0.998800 -0.044850
vn 0.019920 -0.999690 -0.014840
vn 0.020510 -0.999700 0.013420
vn 0.021070 -0.999680 0.014070
vn 0.021590 0.975530 0.218820
vn 0.021760 -0.999150 -0.034900
vn 0.022200 -0.999740 -0.004790
vn 0.022950 -0.999310 0.029200
vn 0.022950 -0.997980 -0.059250
vn 0.023120 -0.997070 -0.072950
vn 0.023760 0.998010 0.058440
vn 0.024220 0.997610 0.064640
vn 0.024320 -0.999560 0.017130
vn 0.024370 -0.999660 0.009600
vn 0.024630 -0.995010 -0.096670
vn 0.025500 -0.998690 -0.044340
vn 0.025920 -0.998550 -0.047210
vn 0.026040 0.993800 0.108090
vn 0.026140 -0.999600 -0.011250
vn 0.027490 -0.999560 -0.011230
vn 0.028080 -0.999600 0.002650
vn 0.028560 -0.999590 0.001080
vn 0.028870 -0.990390 0.135290
vn 0.028920 0.999350 -0.021530
vn 0.029280 0.679460 -0.733130
vn 0.029290 0.998260 0.051180
vn 0.031060 0.998280 0.049630
vn 0.031740 0.998060 0.053500
vn 0.032270 0.997890 0.056290
vn 0.032350 0.994990 0.094580
vn 0.032760 -0.564750 -0.824610
vn 0.033130 0.997820 0.057040
vn 0.033230 -0.998830 0.035020
vn 0.033570 0.998270 -0.048190
vn 0.033600 0.614620 0.788100
vn 0.033890 -0.995830 0.084660
vn 0.035220 -0.999030 -0.026280
vn 0.037820 0.996220 0.078140
vn 0.038140 0.978890 0.200810
vn 0.038700 -0.451990 -0.891180
vn 0.039190 -0.979770 0.196230
vn 0.039930 0.995850 0.081810
vn 0.040330 -0.999020 0.018120
vn 0.040330 0.383230 -0.922770
vn 0.040580 -0.999150 0.006930
vn 0.040820 0.984560 0.170220
vn 0.041820 0.998340 0.039640
vn 0.044380 0.994060 0.099360
vn 0.047060 -0.998890 0.002250
vn 0.047620 0.997260 0.056580
vn 0.048660 0.997020 -0.059920
vn 0.049750 -0.334670 0.941020
vn 0.050130 -0.976990 0.207310
vn 0.050350 0.466840 -0.882910
vn 0.053240 0.997430 0.047870
vn 0.053510 -0.959240 -0.277490
vn 0.055800 0.991830 0.114710
vn 0.057800 0.938170 0.341300
vn 0.058020 0.948500 0.311410
vn 0.058860 -0.996130 0.065250
vn 0.060270 -0.997090 0.046730
vn 0.060430 0.225520 0.972360
vn 0.060600 0.996700 0.054010
vn 0.061650 0.992220 0.108140
vn 0.061780 -0.996710 -0.052490
vn 0.062620 0.770790 -0.634000
vn 0.062660 0.992790 0.102140
vn 0.062700 -0.997300 0.038160
vn 0.063170 0.898720 -0.433950
vn 0.063770 -0.997850 -0.015060
vn 0.063940 0.736600 -0.673300
vn 0.065320 -0.964830 0.254630
vn 0.065500 0.788340 -0.611750
vn 0.065860 0.685660 -0.724940
vn 0.070750 -0.996470 0.045270
vn 0.072870 0.986170 0.148850
vn 0.074870 -0.996320 -0.041700
vn 0.074890 0.992000 0.101640
vn 0.075730 0.994060 0.078110
vn 0.075810 0.987020 0.141560
vn 0.076890 -0.996650 -0.027790
vn 0.077430 -0.995010 -0.062860
vn 0.078760 0.738740 -0.669370
vn 0.079630 0.993600 0.080140
vn 0.079660 -0.101200 -0.991670
vn 0.081020 0.982100 0.170040
vn 0.081330 -0.994460 0.066570
vn 0.081850 0.331980 0.939730
vn 0.084300 -0.991950 -0.094510
vn 0.084800 -0.269510 0.959260
vn 0.085050 -0.993330 -0.077920
vn 0.087660 0.994690 0.053940
vn 0.088250 -0.996070 0.007040
vn 0.089190 -0.182760 0.979100
vn 0.089430 -0.992590 0.082260
vn 0.089780 -0.987250 0.131450
vn 0.092150 0.990450 0.102510
vn 0.092160 -0.135320 0.986510
vn 0.096010 0.643880 0.759080
vn 0.099400 -0.216300 0.971250
vn 0.099890 -0.778610 0.619510
vn 0.100240 -0.994900 -0.011660
vn 0.100260 0.989500 0.104120
vn 0.102750 0.931960 0.347690
vn 0.103100 -0.979670 0.172110
vn 0.103130 -0.161130 0.981530
vn 0.103390 0.558050 0.823340
vn 0.104340 -0.991220 -0.081190
vn 0.107370 0.993100 -0.047140
vn 0.110890 0.992030 0.059840
vn 0.110950 -0.150220 0.982410
vn 0.111650 0.035030 -0.993130
vn 0.111920 0.201510 0.973070
vn 0.111920 0.990670 0.077800
vn 0.113320 0.992650 0.042430
vn 0.113850 -0.140250 0.983550
vn 0.115130 -0.081040 0.990040
vn 0.120670 -0.135230 0.983440
vn 0.120770 0.413550 0.902440
vn 0.121160 -0.989560 -0.078020
vn 0.121740 -0.992100 0.030220
vn 0.122410 0.990240 -0.066580
vn 0.123570 -0.157950 0.979690
vn 0.125730 -0.255510 0.958600
vn 0.126630 -0.988710 -0.080080
vn 0.129000 0.297910 0.945840
vn 0.130800 -0.028460 0.991000
vn 0.132520 0.973300 -0.187420
vn 0.134240 0.929710 -0.342950
vn 0.134880 0.989520 0.051590
vn 0.136280 0.445170 0.885020
vn 0.136460 0.240330 -0.961050
vn 0.137340 0.983990 -0.113560
vn 0.139330 0.982310 0.125080
vn 0.140600 0.990050 0.005710
vn 0.143770 0.450510 0.881120
vn 0.144040 0.848000 -0.510040
vn 0.145360 -0.977170 0.154960
vn 0.145890 -0.988990 0.024700
vn 0.148930 -0.533700 0.832450
vn 0.153590 -0.150680 0.976580
vn 0.155640 -0.388740 0.908110
vn 0.159440 0.969130 0.188080
vn 0.163390 -0.605960 0.778530
vn 0.167240 0.391060 0.905040
vn 0.167610 0.317810 0.933220
vn 0.169030 -0.980550 0.099730
vn 0.169220 0.319480 0.932360
vn 0.169260 0.117720 0.978520
vn 0.169510 -0.982900 -0.071880
vn 0.181410 0.763280 -0.620080
vn 0.187340 -0.403110 0.895770
vn 0.188620 0.981350 0.037010
vn 0.193180 0.793160 -0.577570
vn 0.194950 -0.974360 0.112280
vn 0.198480 0.979890 0.020360
vn 0.208770 -0.248490 0.945870
vn 0.209820 -0.314040 -0.925940
vn 0.211230 0.174250 0.961780
vn 0.217340 -0.894740 -0.390130
vn 0.221740 -0.277880 0.934670
vn 0.224280 -0.478130 -0.849170
vn 0.232100 0.892030 -0.387830
vn 0.235840 0.431710 0.870640
vn 0.240980 -0.970340 0.019060
vn 0.243440 0.928710 0.279700
vn 0.245510 -0.969390 -0.001270
vn 0.263150 -0.351370 -0.898490
vn 0.273230 -0.945530 0.176950
vn 0.281470 0.642780 -0.712470
vn 0.287110 0.957830 0.011030
vn 0.288440 0.407490 -0.866460
vn 0.290700 0.949450 0.118500
vn 0.299950 0.902470 -0.309160
vn 0.301460 0.807800 0.506540
vn 0.301840 0.226020 0.926180
vn 0.303400 -0.947870 -0.097390
vn 0.304380 -0.191780 0.933040
vn 0.305190 -0.303070 0.902780
vn 0.308570 0.346060 -0.886020
vn 0.314260 -0.945800 0.081920
vn 0.314380 0.932250 -0.179090
vn 0.324070 0.706560 0.629090
vn 0.327520 -0.142650 0.934010
vn 0.329520 -0.543960 -0.771710
vn 0.338710 -0.936980 0.085740
vn 0.338820 0.774920 -0.533570
vn 0.353790 -0.016780 0.935170
vn 0.356720 0.934020 -0.018970
vn 0.362660 -0.925810 0.106600
vn 0.362860 -0.594610 0.717470
vn 0.369460 0.752680 -0.544950
vn 0.372490 0.746020 -0.552000
vn 0.374470 0.704400 -0.602990
vn 0.375710 0.770770 -0.514530
vn 0.393680 -0.043380 0.918220
vn 0.398180 -0.251100 0.882270
vn 0.409370 0.053550 0.910800
vn 0.419170 0.698030 -0.580560
vn 0.423970 -0.905640 -0.007540
vn 0.425900 0.329570 0.842610
vn 0.464270 -0.157970 0.871490
vn 0.464570 0.152240 0.872350
vn 0.466600 0.706440 0.532190
vn 0.470300 -0.350810 -0.809780
vn 0.472250 -0.768430 -0.431850
vn 0.476830 -0.270860 0.836220
vn 0.477730 0.566510 -0.671440
vn 0.485590 0.319130 -0.813850
vn 0.492410 0.230050 -0.839410
vn 0.494960 0.319320 0.808110
vn 0.508080 -0.201080 -0.837510
vn 0.519000 0.253150 0.816430
vn 0.548670 0.410140 -0.728530
vn 0.550170 -0.738560 0.389660
vn 0.551610 -0.417040 -0.722360
vn 0.565130 -0.353160 0.745590
vn 0.566650 0.314070 -0.761750
vn 0.590300 0.225940 0.774920
vn 0.590870 0.806770 0.000880
vn 0.598600 -0.800860 -0.017340
vn 0.600410 0.347240 0.720370
vn 0.600730 -0.661080 0.449560
vn 0.603880 -0.201240 0.771250
vn 0.608240 0.382540 0.695490
vn 0.612040 0.693410 -0.380250
vn 0.642170 0.390730 -0.659510
vn 0.645780 0.169660 0.744440
vn 0.647680 0.215270 0.730870
vn 0.651540 0.301890 0.695960
vn 0.652160 0.718220 -0.242570
vn 0.652760 0.729930 0.202760
vn 0.658130 0.445580 0.606900
vn 0.676470 0.678790 -0.285720
vn 0.682790 -0.311570 -0.660850
vn 0.704590 0.508670 0.494780
vn 0.716880 0.302330 0.628240
vn 0.719750 0.646420 -0.253200
vn 0.725720 0.626340 0.284660
vn 0.733580 -0.650430 0.197000
vn 0.740470 0.564060 -0.365430
vn 0.754520 -0.332040 0.566070
vn 0.764360 0.639590 0.081730
vn 0.765890 0.349530 0.539660
vn 0.770690 -0.257960 0.582660
vn 0.772950 0.631410 -0.062230
vn 0.773890 0.343340 -0.532180
vn 0.781600 0.618620 -0.080040
vn 0.783140 0.619810 -0.050280
vn 0.783190 -0.616290 -0.082410
vn 0.788890 0.614020 -0.025330
vn 0.792770 0.380750 0.475970
vn 0.794790 0.597200 0.107980
vn 0.798750 -0.422960 -0.427910
vn 0.799590 0.541860 0.258930
vn 0.802490 0.589130 -0.094570
vn 0.803020 -0.127850 0.582080
vn 0.803210 0.257140 0.537340
vn 0.807510 0.390050 0.442480
vn 0.807630 -0.589110 -0.025980
vn 0.808430 0.575940 -0.121350
vn 0.808530 0.091840 0.581250
vn 0.816480 0.137260 -0.560830
vn 0.831880 0.413360 -0.370290
vn 0.832720 0.546820 -0.087020
vn 0.835020 0.546150 -0.066770
vn 0.835340 0.541280 -0.096010
vn 0.837120 0.539470 -0.090610
vn 0.838300 0.539150 -0.081100
vn 0.839400 0.539100 -0.069080
vn 0.845160 0.526040 -0.094760
vn 0.847560 0.522250 -0.094340
vn 0.849840 0.518520 -0.094350
vn 0.854380 0.515280 -0.067310
vn 0.854630 0.511200 -0.090990
vn 0.856280 -0.377200 -0.352850
vn 0.856480 -0.515850 0.018300
vn 0.864770 0.470200 0.176300
vn 0.868180 0.486780 -0.096490
vn 0.868890 -0.250680 0.426840
vn 0.869830 0.476930 -0.126230
vn 0.873400 0.425880 0.236220
vn 0.879760 0.466080 -0.093780
vn 0.881640 0.384570 -0.273510
vn 0.891270 0.362670 -0.272220
vn 0.898070 -0.367750 -0.241310
vn 0.906880 0.415730 -0.068820
vn 0.910170 0.414120 0.009500
vn 0.911190 -0.008590 0.411890
vn 0.913830 0.385920 -0.126440
vn 0.918280 0.361660 0.161160
vn 0.927030 0.081940 -0.365940
vn 0.927150 0.081100 0.365820
vn 0.928470 -0.269810 -0.255250
vn 0.933730 -0.271110 -0.233750
vn 0.947830 -0.276750 -0.158170
vn 0.948560 -0.291820 -0.122770
vn 0.950650 0.297410 0.088430
vn 0.951500 0.256450 0.169940
vn 0.951620 -0.301410 -0.059710
vn 0.955600 -0.237750 0.174080
vn 0.960030 -0.132110 -0.246760
vn 0.961780 -0.273800 -0.002800
vn 0.964370 0.148600 -0.218900
vn 0.970730 0.197720 -0.136370
vn 0.995710 0.090890 0.017550
vn 0.997220 -0.074290 -0.005080
f 362//632 381//655 370//652
f 340//549 362//616 370//652
f 370//652 361//642 340//549
f 27//461 3//546 6//478
f 23//360 27//461 6//478
f 265//347 231//343 227//298
f 265//230 163//186 224//258
f 227//267 163//186 265//295
f 6//42 1//6 5//47
f 335//625 381//648 362//633
f 224//243 163//187 220//206
f 362//616 340//549 317//474
f 362//633 317//621 335//625
f 317//474 340//549 274//422
f 4//234 2//109 8//204
f 309//367 274//422 340//549
f 8//204 2//109 1//50
f 12//40 1//20 2//24
f 343//567 345//511 361//642
f 361//642 370//652 366//671
f 3//546 27//461 8//294
f 361//642 366//671 376//666
f 340//549 361//642 345//511
f 8//294 27//461 16//345
f 345//511 329//178 309//367
f 345//511 313//426 329//178
f 329//178 313//426 307//207
f 6//42 3//17 1//2
f 1//34 12//40 9//77
f 380//626 394//654 381//655
f 370//652 381//674 366//671
f 366//671 381//655 395//662
f 309//367 340//549 345//511
f 42//308 16//345 27//461
f 309//367 295//506 297//312
f 329//178 307//173 309//367
f 307//246 295//420 309//367
f 308//456 231//343 265//347
f 341//615 380//626 381//648
f 341//615 381//648 335//625
f 309//367 297//312 274//422
f 291//41 275//92 297//39
f 4//91 33//95 13//21
f 295//4 291//41 297//39
f 54//380 33//280 4//251
f 319//552 293//424 343//567
f 2//24 13//32 15//28
f 365//667 361//642 376//666
f 13//81 2//109 4//234
f 4//251 8//294 16//345
f 16//345 54//380 4//251
f 353//644 361//642 365//667
f 343//567 361//642 353//644
f 343//567 293//424 345//511
f 293//424 290//428 313//426
f 2//24 15//28 12//40
f 376//666 366//671 395//662
f 313//426 345//511 293//424
f 313//426 284//296 295//506
f 54//380 16//345 97//310
f 286//46 246//110 272//98
f 290//428 284//414 313//426
f 290//303 246//118 284//86
f 98//389 101//353 97//310
f 400//684 394//653 388//636
f 101//353 54//380 97//310
f 400//684 395//662 381//655
f 394//654 400//684 381//655
f 12//40 24//71 9//77
f 313//426 295//472 307//396
f 286//46 291//41 295//4
f 284//53 286//46 295//4
f 246//110 286//46 284//53
f 394//658 380//626 369//620
f 369//613 364//551 394//619
f 388//586 394//611 364//551
f 97//310 16//345 42//308
f 278//45 282//65 291//41
f 282//65 278//45 277//22
f 277//22 267//102 282//65
f 317//562 304//500 320//607
f 335//625 330//584 341//615
f 320//607 335//625 317//621
f 320//607 325//594 335//625
f 330//584 335//625 325//594
f 304//460 317//474 274//422
f 304//460 274//422 288//434
f 14//19 18//12 11//11
f 14//324 28//372 50//276
f 33//254 11//79 13//81
f 281//519 325//594 300//545
f 300//545 304//560 288//532
f 325//594 320//607 300//545
f 300//545 320//607 304//560
f 13//32 11//27 19//35
f 258//261 288//434 274//422
f 33//254 14//199 11//79
f 258//261 235//263 288//434
f 237//523 300//545 288//532
f 14//324 33//280 28//372
f 281//519 300//545 237//523
f 54//380 28//372 33//280
f 235//217 254//363 288//455
f 254//555 237//523 288//542
f 237//523 254//555 190//509
f 235//217 190//454 254//363
f 210//566 209//529 235//524
f 210//117 235//217 258//261
f 13//32 31//26 15//28
f 237//523 190//509 180//513
f 13//32 19//35 31//26
f 190//509 165//544 180//513
f 190//454 235//217 209//442
f 209//482 162//435 190//454
f 190//503 162//435 165//544
f 85//382 28//372 54//380
f 209//463 128//357 162//435
f 101//353 85//382 54//380
f 162//435 157//515 165//544
f 162//435 89//401 157//495
f 157//515 89//401 90//247
f 101//353 115//252 85//382
f 115//252 100//305 85//382
f 380//626 341//615 369//609
f 12//40 15//28 25//31
f 15//28 31//26 25//31
f 297//39 275//92 274//100
f 274//100 275//92 258//127
f 341//615 330//584 350//580
f 330//584 325//594 281//519
f 203//147 210//117 258//261
f 241//170 258//127 275//92
f 275//92 239//146 241//170
f 129//362 115//252 106//412
f 258//127 241//170 203//355
f 38//70 24//71 12//40
f 205//512 281//519 237//523
f 257//537 281//519 205//512
f 106//412 101//353 98//389
f 210//649 203//639 209//539
f 203//639 191//569 209//499
f 167//337 209//482 191//569
f 203//355 181//568 191//528
f 191//528 181//568 167//606
f 241//170 181//568 203//355
f 106//412 115//252 101//353
f 181//568 241//170 199//576
f 167//337 128//357 209//482
f 167//606 149//623 144//659
f 167//518 144//578 127//381
f 127//381 128//357 167//337
f 127//381 104//444 128//357
f 205//512 237//523 180//513
f 50//192 46//200 21//61
f 30//135 21//61 46//200
f 46//200 75//288 30//135
f 18//12 14//5 50//1
f 11//27 18//12 22//23
f 21//8 18//12 50//3
f 165//544 157//515 180//513
f 180//513 157//522 90//247
f 162//435 128//357 89//401
f 28//372 56//315 50//276
f 89//401 71//292 68//179
f 104//444 89//401 128//357
f 89//401 104//444 71//292
f 28//372 85//382 56//315
f 50//575 56//575 85//575
f 85//382 46//200 50//276
f 125//507 180//513 90//255
f 75//288 46//200 85//382
f 125//507 90//255 92//248
f 68//155 90//163 89//401
f 68//141 52//54 90//247
f 90//247 52//54 70//121
f 92//248 90//247 70//121
f 71//292 52//54 68//155
f 341//615 350//574 369//620
f 11//27 22//23 19//35
f 350//574 364//551 369//613
f 349//582 364//551 350//574
f 349//485 356//356 364//551
f 282//65 275//92 291//41
f 282//65 239//146 275//92
f 312//520 336//259 350//557
f 349//587 350//574 336//388
f 85//382 78//385 75//288
f 350//574 330//584 312//520
f 100//305 78//385 85//382
f 100//305 99//354 78//385
f 336//388 312//520 301//437
f 113//238 99//354 100//305
f 356//356 336//183 301//327
f 243//112 282//65 267//120
f 282//65 243//108 239//146
f 243//112 233//241 239//146
f 144//659 121//681 122//688
f 93//425 122//351 118//269
f 122//688 121//681 118//702
f 93//425 118//316 96//142
f 312//520 330//584 281//519
f 312//520 281//519 257//537
f 301//437 312//520 296//540
f 257//537 296//548 312//520
f 129//362 100//305 115//252
f 239//146 199//576 241//170
f 129//362 113//238 100//305
f 199//576 239//146 233//346
f 154//604 199//576 233//440
f 181//568 149//623 167//605
f 149//623 181//568 199//576
f 199//576 132//643 149//623
f 144//659 149//623 121//681
f 129//362 147//577 148//466
f 144//578 122//351 127//381
f 104//444 127//381 122//351
f 122//351 93//459 104//444
f 257//537 234//514 296//548
f 106//412 171//477 129//362
f 186//402 171//477 106//412
f 234//514 257//537 205//512
f 129//362 171//565 147//577
f 234//514 205//512 172//502
f 171//641 159//676 147//697
f 171//638 184//603 159//676
f 12//40 25//31 38//70
f 104//444 93//459 71//292
f 93//459 67//211 71//292
f 25//31 35//43 38//70
f 67//211 62//107 71//292
f 205//512 180//513 125//507
f 172//490 205//512 125//507
f 35//43 49//88 38//70
f 140//386 186//402 106//412
f 192//299 186//402 140//386
f 184//603 171//641 186//593
f 62//107 52//48 71//292
f 201//448 184//603 186//593
f 62//107 60//30 52//54
f 252//13 260//58 251//73
f 30//135 75//288 37//226
f 125//507 92//248 66//149
f 92//248 70//121 66//145
f 78//385 64//233 37//226
f 75//288 78//385 37//226
f 66//145 70//121 51//90
f 70//121 52//49 51//90
f 236//56 252//13 238//7
f 260//122 252//87 236//106
f 102//403 80//245 64//233
f 21//29 30//25 43//15
f 319//552 353//644 342//570
f 342//570 353//644 348//657
f 342//570 293//424 319//552
f 342//570 276//447 293//424
f 87//392 64//233 78//385
f 365//667 368//661 373//663
f 343//567 353//644 319//552
f 373//663 353//644 365//667
f 102//403 64//233 87//392
f 18//12 21//29 43//15
f 18//12 40//38 22//23
f 40//38 18//12 43//15
f 368//661 376//666 395//662
f 99//354 87//392 78//385
f 368//661 395//662 399//670
f 368//661 365//667 376//666
f 99//354 102//403 87//392
f 99//354 120//306 102//403
f 290//428 293//424 240//423
f 398//699 400//684 388//636
f 19//35 22//23 32//16
f 392//517 398//673 388//586
f 399//670 400//684 398//703
f 395//662 400//684 399//670
f 22//23 40//38 32//16
f 148//340 99//354 113//238
f 129//362 148//340 113//238
f 272//98 246//110 217//136
f 148//340 145//349 99//354
f 290//408 222//286 246//171
f 217//136 246//110 211//278
f 246//110 222//153 211//278
f 290//408 240//423 223//285
f 290//408 223//291 222//158
f 145//349 120//306 99//354
f 168//358 120//306 145//349
f 379//364 388//543 364//551
f 355//445 379//364 364//551
f 392//517 388//543 379//364
f 291//41 286//46 278//45
f 286//46 268//74 278//45
f 19//35 32//16 31//26
f 268//74 286//46 272//98
f 268//74 272//98 253//125
f 217//136 226//168 272//98
f 211//278 222//153 223//458
f 211//278 223//458 161//572
f 223//291 170//476 161//572
f 355//445 364//551 356//356
f 152//698 148//690 147//697
f 150//631 145//602 148//682
f 355//445 356//356 337//464
f 148//690 152//698 150//631
f 166//554 145//406 150//631
f 268//74 277//44 278//45
f 263//85 277//44 268//74
f 260//122 277//72 263//85
f 35//43 25//31 31//26
f 141//600 161//572 170//530
f 45//36 35//43 31//26
f 170//526 108//451 141//493
f 134//640 141//624 114//689
f 141//493 108//451 114//446
f 31//26 32//16 45//36
f 35//43 45//36 48//114
f 159//676 152//691 147//697
f 348//657 351//591 342//570
f 351//591 331//550 342//570
f 316//533 342//570 331//550
f 35//43 48//114 49//88
f 48//114 69//350 49//88
f 389//664 348//657 353//644
f 353//644 373//663 389//664
f 184//603 183//598 159//685
f 316//533 276//447 342//570
f 153//629 138//651 159//635
f 159//628 183//571 153//629
f 280//465 276//447 316//533
f 184//603 201//448 200//494
f 248//37 242//126 269//213
f 399//670 397//668 368//661
f 207//592 200//494 253//242
f 373//663 368//661 397//668
f 389//664 373//663 397//668
f 238//33 252//10 248//37
f 293//424 276//447 240//423
f 242//57 248//37 252//13
f 251//73 213//75 252//14
f 240//423 276//447 280//465
f 213//84 218//97 252//13
f 242//66 252//13 218//96
f 280//465 214//430 240//423
f 253//125 213//103 251//73
f 30//25 37//18 36//62
f 280//465 245//231 214//430
f 392//517 390//563 398//673
f 397//679 399//670 398//703
f 397//696 398//699 390//656
f 36//67 44//99 51//90
f 223//285 240//423 212//331
f 44//99 66//145 51//90
f 240//423 214//430 212//331
f 218//104 213//111 200//494
f 214//430 179//328 212//331
f 183//599 200//494 207//484
f 392//517 385//318 390//489
f 392//517 379//364 385//318
f 385//318 379//364 358//410
f 116//329 80//245 102//403
f 116//342 91//486 80//181
f 223//285 212//281 187//154
f 212//453 160//510 187//585
f 30//25 36//67 47//9
f 212//331 179//328 160//510
f 30//25 47//9 43//15
f 355//445 358//410 379//364
f 355//445 337//464 333//498
f 358//410 355//445 333//498
f 120//306 116//329 102//403
f 333//498 337//464 314//417
f 272//98 226//168 253//129
f 211//278 226//168 217//136
f 226//168 211//278 176//541
f 176//541 173//527 226//168
f 253//129 226//168 173//527
f 120//306 156//432 116//329
f 187//443 170//505 223//277
f 169//260 156//338 120//306
f 211//278 161//572 182//597
f 182//597 176//541 211//278
f 160//510 170//531 187//585
f 179//328 108//451 160//510
f 108//451 179//328 110//352
f 337//464 321//344 314//417
f 314//417 321//344 305//289
f 168//358 169//301 120//306
f 251//73 260//94 263//85
f 207//431 253//125 173//527
f 176//541 158//618 173//527
f 176//541 182//597 158//618
f 197//341 169//301 168//358
f 134//640 158//618 182//597
f 153//629 173//527 158//618
f 182//597 161//572 141//624
f 160//510 108//451 170//526
f 134//640 182//597 141//624
f 374//634 346//583 351//591
f 145//397 197//341 168//358
f 348//657 389//664 386//669
f 374//634 351//591 348//657
f 208//271 197//341 230//379
f 374//634 348//657 386//669
f 32//16 40//38 45//36
f 45//36 40//38 53//119
f 316//533 331//550 303//462
f 166//554 150//631 177//608
f 397//679 393//646 396//677
f 177//608 150//631 152//691
f 185//481 177//608 204//508
f 396//677 389//664 397//668
f 230//427 145//558 166//554
f 396//677 386//669 389//664
f 230//379 197//341 145//349
f 221//131 166//554 185//481
f 177//608 185//481 166//554
f 303//462 280//465 316//533
f 255//390 216//185 303//462
f 285//467 255//390 303//462
f 221//131 185//481 204//508
f 280//465 303//462 216//185
f 221//151 230//387 166//554
f 393//617 397//696 390//656
f 393//535 390//489 378//395
f 378//395 372//398 393//561
f 264//311 287//433 230//379
f 372//398 378//395 359//274
f 216//185 245//231 280//465
f 245//231 216//185 196//221
f 390//489 385//318 378//395
f 74//407 69//350 48//114
f 385//318 358//410 357//332
f 359//274 385//318 357//332
f 45//36 53//119 48//114
f 74//407 48//114 53//119
f 378//395 385//318 359//274
f 214//430 245//231 179//328
f 179//328 245//231 196//221
f 139//687 143//665 138//651
f 358//410 333//498 327//473
f 327//473 333//498 314//417
f 358//410 327//473 357//332
f 195//144 221//128 204//508
f 264//240 230//379 221//131
f 264//89 221//131 238//59
f 110//352 179//328 146//197
f 221//128 236//64 238//33
f 264//311 305//289 322//378
f 314//417 315//319 327//473
f 322//378 287//433 264//311
f 81//253 108//451 110//352
f 88//290 81//253 110//352
f 315//319 314//417 305//289
f 315//319 305//289 283//368
f 74//407 108//451 69//350
f 283//368 305//289 269//213
f 269//213 242//218 283//368
f 200//494 183//598 184//603
f 207//273 173//527 183//571
f 173//527 153//629 183//579
f 81//253 69//350 108//451
f 81//253 49//88 69//350
f 138//651 153//629 139//687
f 139//687 153//629 158//618
f 134//640 139//678 158//618
f 383//630 374//634 387//683
f 139//687 134//640 124//695
f 269//213 264//240 248//37
f 264//89 238//33 248//37
f 269//213 305//289 264//311
f 393//646 391//701 396//677
f 322//378 305//289 321//344
f 386//669 396//677 391//686
f 387//683 386//669 391//686
f 387//683 374//634 386//669
f 253//129 200//494 213//134
f 253//125 263//85 268//74
f 36//67 51//90 47//9
f 331//550 351//591 346//583
f 326//469 331//550 346//583
f 331//550 326//469 271//314
f 303//462 331//550 271//314
f 285//467 303//462 271//314
f 391//573 393//596 372//398
f 253//125 251//73 263//85
f 391//516 372//398 367//323
f 367//323 347//361 354//441
f 152//627 136//660 154//604
f 65//93 66//113 44//99
f 259//212 255//390 285//467
f 259//212 216//185 255//390
f 138//651 143//645 159//628
f 259//212 215//172 216//185
f 125//507 66//149 65//348
f 372//398 359//274 367//323
f 359//274 347//361 367//323
f 65//348 91//486 125//507
f 216//185 215//172 206//188
f 206//188 196//221 216//185
f 43//15 47//9 52//54
f 357//332 347//361 359//274
f 47//9 51//90 52//54
f 347//361 357//332 294//418
f 116//375 156//536 91//486
f 196//221 206//188 130//421
f 172//490 91//486 156//536
f 196//221 146//197 179//328
f 126//256 196//221 130//421
f 172//490 125//507 91//486
f 327//473 315//319 294//418
f 357//332 327//473 294//418
f 294//418 273//409 279//504
f 146//197 196//221 126//256
f 110//352 146//197 109//215
f 109//215 88//290 110//352
f 52//54 60//30 43//15
f 109//215 146//197 126//256
f 109//215 126//256 73//184
f 315//319 283//368 294//418
f 208//271 169//260 197//341
f 172//490 156//497 169//336
f 283//368 273//409 294//418
f 249//268 273//409 283//368
f 169//301 208//325 172//496
f 109//215 82//190 88//290
f 73//184 82//190 109//215
f 82//190 81//253 88//290
f 234//514 172//490 208//369
f 58//116 81//253 82//190
f 208//369 232//538 234//514
f 242//218 228//297 283//368
f 218//104 200//494 201//448
f 218//101 228//297 242//152
f 62//107 67//211 40//38
f 228//297 249//268 283//368
f 228//297 218//148 201//365
f 40//38 43//15 60//30
f 40//38 60//30 62//107
f 201//284 186//402 192//299
f 58//116 49//88 81//253
f 232//487 208//271 230//379
f 363//589 383//630 384//622
f 287//433 262//452 232//487
f 377//692 382//693 387//683
f 262//553 234//514 232//538
f 308//456 292//492 231//343
f 296//521 262//452 287//433
f 262//553 296//548 234//514
f 384//637 383//630 387//683
f 8//80 1//6 3//17
f 227//298 198//262 163//196
f 40//38 67//211 53//119
f 363//589 374//634 383//630
f 374//634 363//589 346//583
f 74//407 53//119 67//211
f 67//211 93//459 74//407
f 93//459 86//475 74//407
f 132//643 121//681 149//623
f 387//683 391//701 377//692
f 377//404 391//516 367//323
f 136//660 132//643 154//610
f 132//643 199//576 154//614
f 382//300 377//404 367//323
f 177//559 154//588 204//525
f 326//469 299//265 271//314
f 204//525 154//588 233//339
f 259//212 285//467 271//314
f 230//379 287//433 232//487
f 332//384 354//441 324//399
f 259//212 244//210 215//172
f 271//314 244//210 259//212
f 301//359 296//534 287//433
f 301//359 287//433 322//378
f 347//361 294//418 324//399
f 354//441 347//361 324//399
f 324//399 302//333 270//317
f 215//172 189//229 206//188
f 206//188 189//229 131//279
f 114//446 86//475 118//269
f 324//399 294//418 302//333
f 124//695 118//702 121//681
f 124//695 114//689 118//702
f 302//333 294//418 261//309
f 294//418 279//504 261//309
f 96//647 86//488 93//480
f 86//438 96//169 118//373
f 139//694 136//660 143//675
f 206//188 131//279 130//421
f 130//421 131//279 126//256
f 139//694 132//643 136//660
f 124//695 121//681 139//687
f 121//681 132//643 139//687
f 279//504 273//409 250//304
f 249//268 250//304 273//409
f 279//504 250//304 261//309
f 195//176 204//525 233//219
f 267//132 195//176 233//219
f 243//123 267//120 233//195
f 236//56 221//128 195//144
f 73//184 126//256 84//202
f 126//256 107//208 84//202
f 249//268 228//297 192//299
f 249//268 192//299 250//304
f 57//105 58//116 82//190
f 356//356 301//359 322//378
f 73//184 57//105 82//190
f 192//299 228//297 201//284
f 108//451 74//407 86//475
f 114//446 108//451 86//475
f 39//76 49//88 58//116
f 39//76 38//70 49//88
f 39//76 58//116 57//105
f 24//71 38//70 39//76
f 134//640 114//689 124//695
f 360//590 363//589 384//622
f 384//700 387//683 382//693
f 384//700 382//693 375//650
f 384//672 375//650 371//612
f 375//220 344//377 371//394
f 371//612 360//601 384//672
f 236//106 195//176 267//120
f 360//590 352//547 363//589
f 260//122 236//143 267//120
f 267//120 277//44 260//122
f 224//224 289//214 265//230
f 382//300 367//323 344//377
f 337//464 322//378 321//344
f 382//300 344//377 375//220
f 356//356 322//378 337//464
f 344//377 318//457 339//419
f 346//583 363//589 352//547
f 352//547 326//469 346//583
f 336//180 356//356 349//366
f 326//469 310//282 299//265
f 352//547 310//282 326//469
f 152//627 154//595 177//559
f 136//660 152//680 143//665
f 354//441 344//377 367//323
f 17//115 20//78 10//63
f 344//377 354//441 332//384
f 344//377 332//384 318//457
f 159//635 143//665 152//627
f 20//78 5//51 10//55
f 23//360 5//405 20//182
f 310//282 271//314 299//265
f 332//384 324//399 311//393
f 311//393 324//399 270//317
f 332//384 311//393 318//457
f 55//330 20//182 26//175
f 20//150 17//115 26//139
f 311//393 298//483 318//457
f 17//115 34//157 26//133
f 229//223 215//172 244//210
f 17//115 29//156 34//157
f 271//314 229//223 244//210
f 174//232 215//172 229//223
f 63//275 26//133 34//157
f 26//376 63//287 55//330
f 298//483 311//393 270//317
f 270//317 261//309 247//237
f 34//157 29//138 61//174
f 76//167 63//335 34//157
f 189//229 215//172 174//232
f 131//279 189//229 174//232
f 76//468 83//374 63//313
f 83//374 76//468 112//491
f 34//157 112//177 76//167
f 61//164 112//177 34//157
f 270//317 302//333 261//309
f 250//304 219//283 261//309
f 261//309 219//283 202//391
f 247//237 261//309 202//391
f 107//208 126//256 131//279
f 119//165 112//177 61//164
f 142//162 119//165 117//159
f 192//299 219//283 250//304
f 219//283 192//299 188//370
f 5//47 1//34 7//83
f 202//391 219//283 188//370
f 10//68 5//52 7//83
f 188//370 175//415 202//391
f 77//198 84//202 107//208
f 55//330 23//360 20//182
f 23//360 6//478 5//405
f 105//225 77//198 107//208
f 73//184 84//202 77//198
f 188//370 192//299 151//400
f 151//400 135//439 188//370
f 73//184 59//124 57//105
f 9//77 57//105 59//124
f 77//198 59//124 73//184
f 29//140 17//82 7//83
f 231//343 256//320 227//302
f 308//456 265//371 306//411
f 17//82 10//60 7//83
f 192//299 140//386 151//400
f 106//412 151//400 140//386
f 29//140 7//83 41//161
f 151//400 106//412 98//389
f 151//400 98//389 97//310
f 111//334 151//400 97//310
f 57//105 24//71 39//76
f 9//77 24//71 57//105
f 338//479 352//547 360//590
f 371//394 344//377 339//419
f 339//419 334//471 371//394
f 55//330 63//272 83//374
f 371//612 334//581 360//601
f 83//374 23//360 55//330
f 334//581 338//564 360//601
f 338//564 334//581 323//436
f 83//374 79//235 23//360
f 323//436 289//222 338//450
f 339//419 318//457 328//501
f 318//457 292//492 328//501
f 306//326 289//214 323//436
f 292//492 308//456 328//501
f 328//501 334//471 339//419
f 334//449 328//501 308//456
f 306//411 334//471 308//456
f 352//547 338//470 310//282
f 306//321 323//436 334//556
f 289//307 310//282 338//470
f 1//34 9//77 7//83
f 29//138 41//161 61//203
f 310//282 289//322 224//257
f 41//161 72//249 61//203
f 298//483 292//492 318//457
f 292//492 298//483 256//320
f 265//230 289//214 306//326
f 292//492 256//320 231//343
f 229//223 271//314 310//282
f 94//270 83//374 112//491
f 224//264 229//223 310//282
f 220//206 229//223 224//264
f 94//270 79//235 83//374
f 103//250 79//235 94//270
f 123//383 103//250 94//270
f 266//429 256//320 298//483
f 256//320 266//429 225//266
f 229//223 220//206 194//205
f 194//205 174//232 229//223
f 270//317 266//429 298//483
f 61//203 72//249 95//236
f 270//317 247//237 225//266
f 266//429 270//317 225//266
f 133//228 95//236 72//249
f 164//416 193//216 247//237
f 247//237 193//216 225//266
f 119//293 94//270 112//491
f 194//205 133//228 174//232
f 174//232 133//228 131//279
f 119//293 137//413 94//270
f 155//239 137//413 119//293
f 137//413 123//383 94//270
f 247//237 202//391 164//416
f 137//413 155//239 164//416
f 202//391 175//415 164//416
f 193//216 164//416 155//239
f 95//236 117//201 61//227
f 119//165 61//164 117//159
f 107//208 131//279 105//225
f 95//236 194//205 117//193
f 133//228 105//225 131//279
f 105//225 133//228 72//249
f 95//236 133//228 194//205
f 175//415 188//370 164//416
f 164//416 188//370 135//439
f 142//189 155//239 119//293
f 137//413 164//416 135//439
f 137//413 135//439 123//383
f 155//239 142//189 178//244
f 123//383 111//334 103//250
f 105//225 72//249 77//198
f 198//262 178//244 142//189
f 41//161 59//124 77//198
f 193//216 155//239 178//244
f 77//198 72//249 41//161
f 151//400 111//334 135//439
f 111//334 123//383 135//439
f 178//244 225//266 193//216
f 117//159 163//186 142//162
f 111//334 79//235 103//250
f 220//206 163//191 117//160
f 194//205 220//206 117//193
f 9//77 59//124 7//83
f 256//320 225//266 227//302
f 227//302 225//266 178//244
f 23//360 42//308 27//461
f 59//124 41//161 7//83
f 198//262 142//166 163//194
f 42//308 79//235 97//310
f 111//334 97//310 79//235
f 227//302 178//244 198//262
f 79//235 42//308 23//360
f 36//130 64//233 80//181
f 80//137 44//99 36//69
f 36//130 37//226 64//233
f 91//486 65//209 80//137
f 80//137 65//209 44//99
